<svg width="31" height="30" viewBox="0 0 31 30" fill="none" xmlns="http://www.w3.org/2000/svg">
<path d="M15.7534 0C7.46915 0 0.753418 6.71573 0.753418 15C0.753418 23.2843 7.46915 30 15.7534 30C24.0377 30 30.7534 23.2843 30.7534 15C30.7534 6.71573 24.0377 0 15.7534 0ZM15.2488 26.6319C14.9352 27.3427 13.9716 28.0068 12.1076 27.7042C8.11593 27.055 5.94789 24.7998 4.68785 23.1445C2.96581 20.8823 2.02496 18.0219 2.02496 14.9704C2.02496 13.589 2.2303 12.2551 2.60698 10.9941C3.02905 16.7104 9.91245 20.7888 11.8172 21.8645C12.6189 22.3174 13.3111 22.7084 13.9521 23.2279C15.2848 24.3106 15.6721 25.6668 15.2488 26.6319ZM19.6896 8.13552C18.888 7.68258 18.1957 7.2916 17.5548 6.77207C16.2221 5.68937 15.8347 4.3332 16.258 3.36805C16.5716 2.6573 17.5353 1.99317 19.3992 2.29585C23.3909 2.94504 25.559 5.2002 26.819 6.85549C28.541 9.11771 29.4819 11.9781 29.4819 15.0296C29.4819 16.411 29.2765 17.7449 28.8999 19.0059C28.4778 13.2896 21.5944 9.21115 19.6896 8.13552Z" fill="white"/>
</svg>
