<svg width="178" height="31" viewBox="0 0 178 31" fill="none" xmlns="http://www.w3.org/2000/svg">
<g clip-path="url(#clip0_5004_205)">
<path d="M47.259 9.08439C48.202 9.90536 48.6748 11.107 48.6748 12.6926H45.5945C45.5945 11.9206 45.3737 11.3236 44.9326 10.9042C44.4923 10.484 43.8579 10.273 43.0318 10.273C42.3563 10.273 41.8125 10.4224 41.3983 10.7179C40.9854 11.0151 40.7788 11.4032 40.7788 11.8857C40.7788 12.2591 40.882 12.5609 41.0885 12.7955C41.2939 13.0297 41.6184 13.2332 42.0596 13.4061C42.5005 13.5784 43.1413 13.7668 43.9822 13.9735C45.1268 14.262 46.0487 14.5557 46.7527 14.8515C47.4557 15.1491 48.0303 15.5933 48.4783 16.1857C48.9261 16.7777 49.1499 17.5761 49.1499 18.5827C49.1499 19.5061 48.9086 20.3197 48.4265 21.0234C47.9445 21.7249 47.269 22.2701 46.4007 22.6554C45.5324 23.0414 44.5334 23.2344 43.4037 23.2344C41.5433 23.2344 40.0859 22.785 39.0309 21.8905C37.9771 20.9952 37.4497 19.721 37.4497 18.065H40.5922C40.5922 18.9624 40.8336 19.6364 41.3163 20.0915C41.7977 20.5458 42.5074 20.7747 43.446 20.7747C44.216 20.7747 44.8331 20.6057 45.2953 20.2697C45.7574 19.9302 45.9863 19.4709 45.9863 18.8926C45.9863 18.4791 45.8837 18.1523 45.6766 17.9107C45.47 17.6698 45.174 17.4817 44.7896 17.3437C44.4022 17.2056 43.7893 17.0253 42.9483 16.8062C41.7498 16.5016 40.7987 16.2054 40.0959 15.918C39.3942 15.6271 38.8107 15.1907 38.3492 14.6047C37.8877 14.0183 37.6575 13.2226 37.6575 12.2168C37.6575 11.362 37.8852 10.6045 38.3392 9.94269C38.7933 9.28162 39.4352 8.76778 40.2619 8.40255C41.0885 8.03732 42.0316 7.85596 43.094 7.85596C44.9264 7.85596 46.3148 8.2645 47.259 9.08439Z" fill="white"/>
<path d="M50.4722 11.0788V8.18701H53.367V11.0788H50.4722ZM50.4722 22.9023V12.4038H53.367V22.9023H50.4722Z" fill="white"/>
<path d="M61.4077 12.5271V15.0273C61.0356 14.959 60.7322 14.9248 60.4982 14.9248C59.6163 14.9248 58.942 15.1967 58.4716 15.7405C58.0039 16.2868 57.7701 17.0753 57.7701 18.1076V22.9023H54.8765V12.4038H57.5424V14.0563H57.5834C57.928 13.491 58.3385 13.0755 58.8138 12.8057C59.2891 12.538 59.8364 12.4038 60.4571 12.4038C60.8012 12.4038 61.1179 12.4436 61.4077 12.5271Z" fill="white"/>
<path d="M77.0039 13.2504C77.6583 13.9809 77.9851 15.048 77.9851 16.4539V22.9019H75.0915V16.7428C75.0915 15.97 74.9468 15.3938 74.6569 15.0071C74.3688 14.6215 73.9621 14.4274 73.4369 14.4274C72.8181 14.4274 72.3423 14.6937 72.012 15.2234C71.6816 15.7552 71.515 16.5163 71.515 17.5077V22.9019H68.6221V16.5575C68.6221 15.882 68.4795 15.3597 68.1984 14.9867C67.9153 14.6134 67.5053 14.4274 66.9675 14.4274C66.3485 14.4274 65.8722 14.6937 65.5418 15.2234C65.2115 15.7552 65.0454 16.5163 65.0454 17.5077V22.9019H62.1523V12.4034H64.8801V13.6012H64.9216C65.3073 13.105 65.7339 12.7397 66.2018 12.5066C66.672 12.2713 67.2165 12.1533 67.8364 12.1533C68.5668 12.1533 69.1969 12.3051 69.7277 12.6098C70.2573 12.9123 70.6687 13.3599 70.9579 13.9527C71.371 13.3599 71.8387 12.9123 72.3628 12.6098C72.8868 12.3051 73.5342 12.1533 74.3068 12.1533C75.4501 12.1533 76.3482 12.5203 77.0039 13.2504Z" fill="white"/>
<path d="M88.4867 20.0313V18.0878V16.2254C88.4867 14.8494 88.1071 13.8119 87.3495 13.1166C86.5919 12.4207 85.4684 12.0728 83.9808 12.0728C82.5463 12.0728 81.4439 12.4101 80.6726 13.0857C79.9013 13.7597 79.4872 14.6283 79.4322 15.6894H82.2441C82.2712 15.1942 82.4333 14.8036 82.7291 14.5212C83.0263 14.2401 83.4433 14.0982 83.9808 14.0982C84.5182 14.0982 84.9373 14.2493 85.2409 14.5536C85.5438 14.8558 85.6963 15.3235 85.6963 15.9571V16.3304C84.8278 16.386 83.9519 16.4819 83.07 16.6199C81.6102 16.8552 80.5659 17.2468 79.9387 17.7984C79.3132 18.3492 78.999 19.0719 78.999 19.9679C78.999 20.8934 79.3216 21.652 79.9697 22.2529C80.6181 22.8523 81.4859 23.1524 82.5748 23.1524C83.8998 23.1524 84.9387 22.722 85.6963 21.8633V22.9023H88.4867C88.4867 22.9023 88.4867 21.2153 88.4867 20.0313ZM85.572 19.6889C85.4896 19.9848 85.3293 20.2503 85.0965 20.4849C84.9025 20.6779 84.6588 20.8272 84.3615 20.9307C84.0653 21.0336 83.7592 21.0864 83.4433 21.0864C82.9467 21.0864 82.5636 20.9631 82.2952 20.7229C82.0261 20.4828 81.8933 20.1608 81.8933 19.7615C81.8933 19.3466 82.0226 19.031 82.2857 18.8105C82.5463 18.5915 82.9805 18.4252 83.5877 18.3154C84.166 18.2189 84.869 18.1428 85.6963 18.0879V18.4795C85.6963 18.9909 85.654 19.3931 85.572 19.6889Z" fill="white"/>
<path d="M15 0.0947266C6.71573 0.0947266 0 6.81046 0 15.0947C0 23.379 6.71573 30.0947 15 30.0947C23.2843 30.0947 30 23.379 30 15.0947C30 6.81046 23.2843 0.0947266 15 0.0947266ZM14.4954 26.7267C14.1818 27.4374 13.2182 28.1016 11.3542 27.7989C7.36252 27.1497 5.19447 24.8945 3.93444 23.2392C2.21239 20.977 1.27155 18.1166 1.27155 15.0652C1.27155 13.6837 1.47689 12.3498 1.85356 11.0889C2.27563 16.8051 9.15903 20.8836 11.0638 21.9592C11.8655 22.4121 12.5577 22.8031 13.1986 23.3227C14.5313 24.4054 14.9187 25.7615 14.4954 26.7267ZM18.9362 8.23025C18.1346 7.77731 17.4423 7.38633 16.8014 6.8668C15.4687 5.78409 15.0813 4.42792 15.5046 3.46278C15.8182 2.75203 16.7818 2.08789 18.6458 2.39058C22.6375 3.03976 24.8055 5.29493 26.0656 6.95021C27.7876 9.21244 28.7285 12.0728 28.7285 15.1243C28.7285 16.5057 28.5231 17.8396 28.1464 19.1006C27.7244 13.3843 20.841 9.30588 18.9362 8.23025Z" fill="white"/>
<path d="M96.4084 18.0958L94.5577 22.8787H93.1021L98.9663 8.07227H100.817L106.661 22.8787H105.205L103.354 18.0958H96.4084ZM102.273 15.3091L99.9021 9.17439H99.8605L99.611 9.81909C98.89 11.7187 98.1829 13.5486 97.4898 15.3091L96.8867 16.848H102.855L102.273 15.3091Z" fill="white"/>
<path d="M115.405 13.1258C116.188 13.8467 116.628 14.7894 116.725 15.9539H115.374C115.304 15.1361 114.999 14.4671 114.459 13.9471C113.918 13.4272 113.246 13.1674 112.442 13.1674C111.388 13.1674 110.56 13.5624 109.957 14.3527C109.353 15.1429 109.052 16.2242 109.052 17.5967C109.052 18.9831 109.353 20.0681 109.957 20.8513C110.56 21.6347 111.388 22.0262 112.442 22.0262C113.232 22.0262 113.901 21.7454 114.448 21.1839C114.996 20.6224 115.304 19.9329 115.374 19.1148H116.725C116.656 19.8773 116.438 20.5637 116.07 21.1736C115.703 21.7838 115.207 22.2654 114.584 22.6188C113.96 22.9723 113.246 23.1491 112.442 23.1491C110.958 23.1491 109.79 22.6536 108.938 21.6623C108.085 20.6712 107.659 19.3159 107.659 17.5967C107.659 15.8778 108.085 14.5225 108.938 13.5312C109.79 12.5401 110.958 12.0444 112.442 12.0444C113.634 12.0444 114.622 12.405 115.405 13.1258Z" fill="white"/>
<path d="M125.802 13.0633C126.503 13.7428 126.853 14.7549 126.853 16.0994V20.2794C126.853 21.2776 126.929 22.1442 127.081 22.8788H125.875C125.778 22.4077 125.73 21.8737 125.73 21.2776H125.688C124.967 22.4836 123.713 23.0867 121.924 23.0867C120.857 23.0867 119.993 22.8027 119.335 22.2341C118.676 21.6658 118.347 20.938 118.347 20.0506C118.347 19.1496 118.649 18.4425 119.252 17.9294C119.855 17.4167 120.891 17.0424 122.361 16.8065C123.373 16.6402 124.454 16.5154 125.605 16.4321V15.9331C125.605 14.9904 125.362 14.2903 124.877 13.8327C124.391 13.3753 123.733 13.1466 122.902 13.1466C122.042 13.1466 121.376 13.358 120.905 13.7808C120.434 14.2039 120.177 14.7757 120.136 15.4965H118.784C118.853 14.4706 119.245 13.6388 119.959 13.0009C120.673 12.3634 121.654 12.0444 122.902 12.0444C124.135 12.0444 125.102 12.3842 125.802 13.0633ZM122.527 17.8878C121.487 18.0406 120.76 18.2762 120.344 18.595C119.928 18.9141 119.72 19.3715 119.72 19.9674C119.72 20.5913 119.938 21.0872 120.375 21.4542C120.812 21.8218 121.418 22.0054 122.195 22.0054C122.68 22.0054 123.133 21.9258 123.557 21.7662C123.979 21.607 124.337 21.3747 124.628 21.0695C125.002 20.6817 125.258 20.2968 125.397 19.9155C125.535 19.5343 125.605 19.0039 125.605 18.3246V17.5136C124.703 17.583 123.678 17.7079 122.527 17.8878Z" fill="white"/>
<path d="M136.868 22.8787V21.2775H136.826C136.548 21.8321 136.112 22.2756 135.516 22.6083C134.92 22.9411 134.247 23.1074 133.498 23.1074C132.597 23.1074 131.811 22.882 131.138 22.4316C130.466 21.9813 129.95 21.3366 129.589 20.4976C129.228 19.659 129.048 18.6851 129.048 17.5758C129.048 16.4668 129.228 15.493 129.589 14.6541C129.95 13.8155 130.466 13.1708 131.138 12.7201C131.811 12.2697 132.597 12.0443 133.498 12.0443C134.247 12.0443 134.92 12.2106 135.516 12.5434C136.112 12.8761 136.548 13.3199 136.826 13.8742H136.868V8.07227H138.157V22.8787H136.868ZM131.294 14.3318C130.698 15.136 130.4 16.2173 130.4 17.5758C130.4 18.9347 130.698 20.0161 131.294 20.8199C131.89 21.6241 132.694 22.0261 133.707 22.0261C134.691 22.0261 135.474 21.6206 136.057 20.8096C136.639 19.9984 136.93 18.9208 136.93 17.5758C136.93 16.2313 136.639 15.1531 136.057 14.3421C135.474 13.5311 134.691 13.1256 133.707 13.1256C132.694 13.1256 131.89 13.5278 131.294 14.3318Z" fill="white"/>
<path d="M147.361 21.4128C147.902 20.99 148.255 20.432 148.421 19.7387H149.752C149.572 20.7092 149.097 21.5203 148.328 22.1717C147.559 22.8235 146.543 23.1491 145.281 23.1491C143.784 23.1491 142.606 22.6328 141.746 21.5999C140.886 20.5672 140.457 19.1704 140.457 17.4096C140.457 16.3699 140.647 15.4444 141.029 14.6334C141.41 13.8224 141.957 13.1882 142.672 12.7306C143.385 12.2732 144.228 12.0444 145.198 12.0444C146.376 12.0444 147.357 12.377 148.141 13.0425C148.924 13.708 149.434 14.6302 149.669 15.8082C149.78 16.3075 149.836 16.9868 149.836 17.8462H141.767C141.795 19.2052 142.134 20.2449 142.786 20.9657C143.438 21.6866 144.269 22.047 145.281 22.047C146.127 22.047 146.82 21.8358 147.361 21.4128ZM142.807 14.1238C142.183 14.7757 141.843 15.6628 141.788 16.7857H148.588C148.518 15.6351 148.179 14.7409 147.569 14.103C146.959 13.4657 146.169 13.1466 145.198 13.1466C144.228 13.1466 143.431 13.4725 142.807 14.1238Z" fill="white"/>
<path d="M165.817 13.1569C166.406 13.8712 166.701 14.9282 166.701 16.3283V22.8788H165.411V16.4114C165.411 15.2468 165.214 14.4222 164.819 13.9368C164.424 13.4517 163.831 13.2089 163.041 13.2089C162.195 13.2089 161.516 13.5208 161.003 14.1447C160.49 14.7686 160.233 15.5936 160.233 16.6195V22.8788H158.944V16.0788C158.944 15.1778 158.736 14.4743 158.32 13.9679C157.904 13.4621 157.322 13.2089 156.573 13.2089C155.728 13.2089 155.048 13.5348 154.535 14.1863C154.022 14.8382 153.766 15.7044 153.766 16.7858V22.8788H152.477V12.3148H153.766V13.6873H153.808C154.57 12.6199 155.554 12.0859 156.761 12.0859C157.481 12.0859 158.119 12.2699 158.674 12.6371C159.228 13.0046 159.637 13.5208 159.901 14.1863C160.233 13.5072 160.684 12.9873 161.252 12.6266C161.821 12.2664 162.486 12.0859 163.249 12.0859C164.372 12.0859 165.227 12.4432 165.817 13.1569Z" fill="white"/>
<path d="M172.024 25.4987C171.664 25.9838 171.255 26.3234 170.797 26.5176C170.34 26.7117 169.758 26.8087 169.051 26.8087C168.745 26.8087 168.489 26.781 168.281 26.7257V25.5819C168.489 25.637 168.739 25.665 169.03 25.665C169.556 25.665 169.979 25.5923 170.298 25.4468C170.617 25.3011 170.898 25.0341 171.14 24.6461C171.383 24.2578 171.657 23.6687 171.962 22.8785L167.803 12.3145H169.196L172.627 21.2357H172.669L176.1 12.3145H177.493L173.126 23.3775C172.752 24.3062 172.385 25.0133 172.024 25.4987Z" fill="white"/>
</g>
<defs>
<clipPath id="clip0_5004_205">
<rect width="177.493" height="30" fill="white" transform="translate(0 0.0947266)"/>
</clipPath>
</defs>
</svg>
