<svg width="37" height="15" viewBox="0 0 37 15" fill="none" xmlns="http://www.w3.org/2000/svg">
<path d="M0 14.0745H14V0.0744823H0V14.0745ZM23.056 13.0945V11.0925H18.142V10.0005L22.832 3.29448H24.442V9.87448H25.842V11.0925H24.442V13.0945H23.056ZM19.668 9.87448H23.14V4.83448L19.668 9.87448ZM27.7893 13.1645C27.5187 13.1645 27.2947 13.0805 27.1173 12.9125C26.9493 12.7351 26.8653 12.5251 26.8653 12.2825C26.8653 12.0305 26.9493 11.8205 27.1173 11.6525C27.2947 11.4751 27.5187 11.3865 27.7893 11.3865C28.06 11.3865 28.2793 11.4751 28.4473 11.6525C28.6153 11.8205 28.6993 12.0305 28.6993 12.2825C28.6993 12.5251 28.6153 12.7351 28.4473 12.9125C28.2793 13.0805 28.06 13.1645 27.7893 13.1645ZM33.1173 13.2625C32.4827 13.2625 31.9413 13.1411 31.4933 12.8985C31.0453 12.6465 30.6907 12.3151 30.4293 11.9045C30.168 11.4845 30.0093 11.0318 29.9533 10.5465H31.2553C31.3487 11.0318 31.5587 11.4098 31.8853 11.6805C32.212 11.9418 32.6273 12.0725 33.1313 12.0725C33.598 12.0725 34.0087 11.9325 34.3633 11.6525C34.718 11.3725 35.0027 10.9478 35.2173 10.3785C35.432 9.80915 35.5533 9.09048 35.5813 8.22248C35.5907 8.19448 35.5953 8.16648 35.5953 8.13848C35.5953 8.11048 35.5953 8.08248 35.5953 8.05448C35.446 8.33448 35.2407 8.59115 34.9793 8.82448C34.718 9.05782 34.41 9.24448 34.0553 9.38448C33.71 9.51515 33.3227 9.58048 32.8933 9.58048C32.3427 9.58048 31.8247 9.45448 31.3393 9.20248C30.8633 8.94115 30.4713 8.57248 30.1633 8.09648C29.8647 7.62048 29.7153 7.06515 29.7153 6.43048C29.7153 5.86115 29.8507 5.32448 30.1213 4.82048C30.4013 4.31648 30.7933 3.91048 31.2973 3.60248C31.8107 3.28515 32.4127 3.12648 33.1033 3.12648C33.822 3.12648 34.424 3.26182 34.9093 3.53248C35.404 3.79382 35.796 4.15315 36.0853 4.61048C36.384 5.05848 36.5987 5.56248 36.7293 6.12248C36.8693 6.67315 36.9393 7.24248 36.9393 7.83048C36.9393 8.90382 36.79 9.85115 36.4913 10.6725C36.1927 11.4845 35.7587 12.1191 35.1893 12.5765C34.62 13.0338 33.9293 13.2625 33.1173 13.2625ZM33.2013 8.39048C33.6027 8.39048 33.962 8.30182 34.2793 8.12448C34.5967 7.93782 34.8487 7.69048 35.0353 7.38248C35.222 7.07448 35.3153 6.73382 35.3153 6.36048C35.3153 5.96848 35.222 5.62315 35.0353 5.32448C34.8487 5.01648 34.592 4.77848 34.2653 4.61048C33.948 4.43315 33.5887 4.34448 33.1873 4.34448C32.7953 4.34448 32.4407 4.43315 32.1233 4.61048C31.806 4.77848 31.554 5.01648 31.3673 5.32448C31.19 5.62315 31.1013 5.97315 31.1013 6.37448C31.1013 6.77582 31.19 7.13048 31.3673 7.43848C31.554 7.73715 31.806 7.97048 32.1233 8.13848C32.4407 8.30648 32.8 8.39048 33.2013 8.39048Z" fill="#DD9115"/>
</svg>
